<svg width="16" height="16" viewBox="0 0 16 16" fill="none" xmlns="http://www.w3.org/2000/svg">
<g id="Icon / Relume">
<path id="Vector" fill-rule="evenodd" clip-rule="evenodd" d="M13.82 4.74665L13.7267 4.57998C13.6063 4.37844 13.4365 4.21093 13.2333 4.09331L8.76 1.51331C8.55746 1.39581 8.32753 1.33373 8.09333 1.33331H7.9C7.6658 1.33373 7.43586 1.39581 7.23333 1.51331L2.76 4.09998C2.55798 4.21682 2.39017 4.38463 2.27333 4.58665L2.18 4.75331C2.0625 4.95587 2.00041 5.18581 2 5.41998V10.5866C2.00041 10.8208 2.0625 11.0508 2.18 11.2533L2.27333 11.42C2.39319 11.6196 2.56033 11.7868 2.76 11.9066L7.24 14.4866C7.44153 14.6066 7.67213 14.6688 7.90666 14.6666H8.09333C8.32753 14.6662 8.55746 14.6042 8.76 14.4866L13.2333 11.9C13.4373 11.7858 13.6058 11.6173 13.72 11.4133L13.82 11.2466C13.9361 11.0435 13.9981 10.814 14 10.58V5.41331C13.9996 5.17914 13.9375 4.94921 13.82 4.74665ZM7.9 2.66665H8.09333L12 4.91998L8 7.22665L4 4.91998L7.9 2.66665ZM8.66666 13L12.5667 10.7466L12.6667 10.58V6.07331L8.66666 8.38665V13Z" fill="black"/>
</g>
</svg>
